# File created by Blade
# Date/Time:  Wed Jan 21 18:40:08 2015
# Frame Rate: 120.000 fps
#------------------------------------------------------
:FULLY-SPECIFIED
:DEGREES
3179
root -2.268879 18.469561 -13.334632 98.053334 -38.110957 0.139751
RightUpLeg -180.901264 5.214409 23.304708
RightLeg 89.752671 -0.000000 -0.000000
RightFoot 2.463725 32.006248 24.441636
RightToeBase 30.845887 -0.000000 -0.000000
LeftUpLeg -116.112883 45.247353 -62.492437
LeftLeg -3.543506 -0.000000 0.000000
LeftFoot 4.006376 -1.936496 -30.224441
LeftToeBase 10.269610 -0.000000 -0.000000
Spine -32.539013 -59.654337 32.628143
RightShoulder -31.713599 -6.958830 -53.198050
RightArm -28.311342 -31.431248 67.091381
RightForeArm 4.287874 0.000000 -15.623924
RightHand 11.072525 -0.000000 2.103051
RightHandThumb1 -24.326973 -0.000000 -32.862282
LeftShoulder 7.377149 -18.040816 38.475785
LeftArm 72.937522 44.088266 -18.439183
LeftForeArm 38.848160 -0.000000 4.453124
LeftHand -13.821507 -0.000000 23.519101
LeftHandThumb1 -26.253704 0.000000 33.147579
Head -49.738468 -64.277771 43.029049
3180
root -2.267908 18.466847 -13.333200 98.105619 -38.119594 0.090912
RightUpLeg -180.906255 5.247570 23.286752
RightLeg 89.746950 -0.000000 -0.000000
RightFoot 2.549823 31.982983 24.563224
RightToeBase 30.762080 -0.000000 -0.000000
LeftUpLeg -116.191673 45.246890 -62.572451
LeftLeg -3.539231 -0.000000 0.000000
LeftFoot 4.018780 -1.957689 -30.341603
LeftToeBase 10.223477 -0.000000 -0.000000
Spine -32.587148 -59.672099 32.649666
RightShoulder -31.726637 -6.994039 -53.209561
RightArm -28.367824 -31.488777 67.098219
RightForeArm 4.197099 -0.000000 -15.609590
RightHand 11.133507 -0.000000 2.155257
RightHandThumb1 -24.326973 -0.000000 -32.862282
LeftShoulder 7.369851 -18.050954 38.509316
LeftArm 72.975621 44.163985 -18.373100
LeftForeArm 38.772335 -0.000000 4.443751
LeftHand -13.826343 -0.000000 23.508533
LeftHandThumb1 -26.253704 0.000000 33.147579
Head -49.607211 -64.357000 42.949015
3181
root -2.268525 18.463547 -13.331415 98.148743 -38.124997 0.036041
RightUpLeg -180.903721 5.278047 23.273258
RightLeg 89.758833 -0.000000 -0.000000
RightFoot 2.544183 32.010512 24.582814
RightToeBase 30.813356 -0.000000 -0.000000
LeftUpLeg -116.270915 45.256215 -62.667839
LeftLeg -3.555992 -0.000000 0.000000
LeftFoot 4.034651 -1.980587 -30.399067
LeftToeBase 10.216513 -0.000000 -0.000000
Spine -32.622318 -59.700197 32.663648
RightShoulder -31.731729 -7.029940 -53.228230
RightArm -28.391195 -31.433958 67.067801
RightForeArm 4.256835 -0.000000 -15.638780
RightHand 11.184079 -0.000000 2.116710
RightHandThumb1 -24.326973 -0.000000 -32.862282
LeftShoulder 7.359578 -18.035117 38.521976
LeftArm 72.996315 44.210716 -18.344393
LeftForeArm 38.872732 0.000000 4.342373
LeftHand -13.734653 -0.000000 23.689733
LeftHandThumb1 -26.253704 0.000000 33.147579
Head -49.480314 -64.438951 42.889210
3182
root -2.269137 18.461862 -13.329679 98.176658 -38.121305 0.002915
RightUpLeg -180.897563 5.300729 23.274973
RightLeg 89.759857 -0.000000 -0.000000
RightFoot 2.489673 32.011910 24.583814
RightToeBase 31.010763 -0.000000 -0.000000
LeftUpLeg -116.343234 45.234727 -62.784243
LeftLeg -3.611262 -0.000000 0.000000
LeftFoot 4.118870 -2.048090 -30.364526
LeftToeBase 10.065467 -0.000000 -0.000000
Spine -32.635513 -59.729463 32.664665
RightShoulder -31.735573 -7.056915 -53.242681
RightArm -28.484665 -31.372840 67.033209
RightForeArm 4.082246 -0.000000 -15.606455
RightHand 11.163365 -0.000000 2.108819
RightHandThumb1 -24.326973 -0.000000 -32.862282
LeftShoulder 7.347763 -18.033381 38.566350
LeftArm 73.008101 44.250801 -18.343849
LeftForeArm 38.764457 -0.000000 4.355196
LeftHand -13.797671 -0.000000 23.645493
LeftHandThumb1 -26.253704 0.000000 33.147579
Head -49.389982 -64.517957 42.904056
3183
root -2.271286 18.459341 -13.328842 98.214525 -38.113461 -0.026796
RightUpLeg -180.910374 5.317065 23.270338
RightLeg 89.773173 -0.000000 -0.000000
RightFoot 2.502398 32.028872 24.597557
RightToeBase 30.939988 -0.000000 -0.000000
LeftUpLeg -116.413742 45.215584 -62.871843
LeftLeg -3.650817 -0.000000 0.000000
LeftFoot 4.134728 -2.064167 -30.450819
LeftToeBase 10.167102 -0.000000 -0.000000
Spine -32.704832 -59.766582 32.718220
RightShoulder -31.725972 -7.093134 -53.255233
RightArm -28.586134 -31.344976 67.031021
RightForeArm 4.050987 -0.000000 -15.546794
RightHand 11.169705 -0.000000 2.181848
RightHandThumb1 -24.326973 -0.000000 -32.862282
LeftShoulder 7.328845 -18.009363 38.605315
LeftArm 73.013041 44.276062 -18.360696
LeftForeArm 38.675929 -0.000000 4.351705
LeftHand -13.818982 -0.000000 23.528028
LeftHandThumb1 -26.253704 0.000000 33.147579
Head -49.284477 -64.599167 42.903129
3184
root -2.274619 18.457244 -13.328078 98.249746 -38.102348 -0.054290
RightUpLeg -180.918961 5.334616 23.269837
RightLeg 89.789177 -0.000000 -0.000000
RightFoot 2.457498 32.035034 24.557802
RightToeBase 30.951815 -0.000000 -0.000000
LeftUpLeg -116.463398 45.208671 -62.923737
LeftLeg -3.677753 -0.000000 0.000000
LeftFoot 4.155435 -2.093170 -30.471672
LeftToeBase 10.179780 -0.000000 -0.000000
Spine -32.788349 -59.813541 32.786412
RightShoulder -31.722297 -7.154946 -53.265168
RightArm -28.623680 -31.310418 67.018442
RightForeArm 3.880609 -0.000000 -15.579638
RightHand 11.285851 0.000000 2.166685
RightHandThumb1 -24.326973 -0.000000 -32.862282
LeftShoulder 7.321441 -17.982058 38.635601
LeftArm 73.001011 44.317441 -18.389402
LeftForeArm 38.678105 -0.000000 4.290281
LeftHand -13.804214 0.000000 23.556997
LeftHandThumb1 -26.253704 0.000000 33.147579
Head -49.160787 -64.675540 42.892316
3185
root -2.279429 18.455270 -13.327476 98.292692 -38.077226 -0.094376
RightUpLeg -180.920545 5.366453 23.282359
RightLeg 89.807521 -0.000000 -0.000000
RightFoot 2.536235 32.062724 24.665627
RightToeBase 30.823435 -0.000000 -0.000000
LeftUpLeg -116.517074 45.212922 -62.957169
LeftLeg -3.705640 -0.000000 0.000000
LeftFoot 4.156244 -2.103709 -30.419013
LeftToeBase 10.197489 -0.000000 -0.000000
Spine -32.866811 -59.867186 32.865394
RightShoulder -31.716413 -7.188743 -53.265310
RightArm -28.702692 -31.405820 67.083948
RightForeArm 3.943926 0.000000 -15.625052
RightHand 11.151115 -0.000000 2.346693
RightHandThumb1 -24.326973 -0.000000 -32.862282
LeftShoulder 7.318695 -17.974843 38.661362
LeftArm 73.115920 44.415017 -18.243940
LeftForeArm 38.504078 -0.000000 4.183499
LeftHand -13.759865 0.000000 23.581906
LeftHandThumb1 -26.253704 0.000000 33.147579
Head -49.035597 -64.711570 42.891860
3186
root -2.285010 18.453726 -13.327886 98.328502 -38.046591 -0.131602
RightUpLeg -180.913242 5.398076 23.301044
RightLeg 89.825875 -0.000000 -0.000000
RightFoot 2.460599 32.069608 24.621967
RightToeBase 30.932465 -0.000000 -0.000000
LeftUpLeg -116.560464 45.219956 -62.972241
LeftLeg -3.739096 -0.000000 0.000000
LeftFoot 4.170361 -2.081812 -30.415870
LeftToeBase 10.232677 -0.000000 -0.000000
Spine -32.946359 -59.933243 32.945836
RightShoulder -31.712853 -7.210519 -53.267651
RightArm -28.760742 -31.479708 67.113400
RightForeArm 3.909913 -0.000000 -15.697579
RightHand 10.996604 0.000000 2.458959
RightHandThumb1 -24.326973 -0.000000 -32.862282
LeftShoulder 7.319842 -17.928120 38.719636
LeftArm 72.999086 44.413714 -18.494054
LeftForeArm 38.679074 -0.000000 3.973071
LeftHand -13.642165 -0.000000 23.641046
LeftHandThumb1 -26.253704 0.000000 33.147579
Head -48.891103 -64.766112 42.881688
3187
root -2.291126 18.453267 -13.328594 98.351950 -38.012731 -0.165758
RightUpLeg -180.892365 5.430812 23.325290
RightLeg 89.839937 -0.000000 -0.000000
RightFoot 2.401038 32.074878 24.618351
RightToeBase 31.020207 -0.000000 -0.000000
LeftUpLeg -116.618504 45.221225 -63.009421
LeftLeg -3.767844 -0.000000 0.000000
LeftFoot 4.201866 -2.088941 -30.377381
LeftToeBase 10.246295 -0.000000 -0.000000
Spine -32.992187 -59.997155 32.996254
RightShoulder -31.726464 -7.247212 -53.257357
RightArm -28.783993 -31.471185 67.064521
RightForeArm 3.771510 -0.000000 -15.791309
RightHand 11.003727 -0.000000 2.449384
RightHandThumb1 -24.326973 -0.000000 -32.862282
LeftShoulder 7.313258 -17.918005 38.762400
LeftArm 72.990178 44.482201 -18.527142
LeftForeArm 38.559337 -0.000000 3.905099
LeftHand -13.618100 0.000000 23.660727
LeftHandThumb1 -26.253704 0.000000 33.147579
Head -48.832035 -64.832864 42.955846
3188
root -2.298107 18.451679 -13.329630 98.386763 -37.999265 -0.213552
RightUpLeg -180.876216 5.471494 23.322071
RightLeg 89.862262 -0.000000 -0.000000
RightFoot 2.349091 32.077444 24.564420
RightToeBase 30.966242 -0.000000 -0.000000
LeftUpLeg -116.648089 45.248901 -63.022074
LeftLeg -3.798630 -0.000000 0.000000
LeftFoot 4.204691 -2.055139 -30.285381
LeftToeBase 10.277125 -0.000000 -0.000000
Spine -33.070888 -60.063883 33.050969
RightShoulder -31.735105 -7.260732 -53.270302
RightArm -28.842098 -31.565348 67.069641
RightForeArm 3.820301 0.000000 -15.856776
RightHand 10.889731 -0.000000 2.726170
RightHandThumb1 -24.326973 -0.000000 -32.862282
LeftShoulder 7.308857 -17.882166 38.795671
LeftArm 72.798499 44.509465 -18.809683
LeftForeArm 38.863273 -0.000000 3.773300
LeftHand -13.572597 0.000000 23.827234
LeftHandThumb1 -26.253704 0.000000 33.147579
Head -48.727560 -64.908187 42.961865
3189
root -2.302019 18.450438 -13.330619 98.424315 -38.026760 -0.242911
RightUpLeg -180.876061 5.505153 23.288276
RightLeg 89.856763 -0.000000 -0.000000
RightFoot 2.473086 32.094225 24.744260
RightToeBase 30.794433 -0.000000 -0.000000
LeftUpLeg -116.622376 45.266069 -63.015522
LeftLeg -3.826342 -0.000000 0.000000
LeftFoot 4.158392 -1.990477 -30.250976
LeftToeBase 10.321451 -0.000000 -0.000000
Spine -33.155392 -60.102897 33.066029
RightShoulder -31.778032 -7.280097 -53.301268
RightArm -28.881429 -31.501290 66.949722
RightForeArm 3.670450 -0.000000 -15.892378
RightHand 10.922696 -0.000000 2.729494
RightHandThumb1 -24.326973 -0.000000 -32.862282
LeftShoulder 7.298962 -17.868944 38.829519
LeftArm 72.833829 44.610472 -18.675684
LeftForeArm 38.743100 -0.000000 3.907462
LeftHand -13.715015 -0.000000 23.831039
LeftHandThumb1 -26.253704 0.000000 33.147579
Head -48.716996 -65.011573 43.042029
